<svg width="362" height="452" viewBox="0 0 362 452" fill="none" xmlns="http://www.w3.org/2000/svg">
<path d="M293.937 189.383H295.273L296.016 188.272C307.835 170.585 323.882 159.875 347.332 159.875C369.321 159.875 383.496 169.589 396.813 182.992C401.243 187.45 405.504 192.238 409.932 197.213C412.237 199.803 414.587 202.444 417.03 205.115C423.442 212.127 430.378 219.218 438.47 225.7C430.379 232.182 423.447 239.274 417.041 246.286C414.6 248.959 412.251 251.601 409.947 254.192C405.526 259.165 401.27 263.952 396.845 268.409C383.541 281.811 369.366 291.525 347.332 291.525C323.791 291.525 307.749 280.813 296.02 263.135L295.278 262.017H293.937H259.335H256.835V264.517V299.821V301.128L257.909 301.874C275.151 313.85 285.729 330.248 285.729 354.27C285.729 376.779 276.176 391.272 263.038 404.851C258.659 409.378 253.954 413.732 249.066 418.257C246.534 420.6 243.953 422.988 241.343 425.47C234.489 431.986 227.559 439.031 221.221 447.242C214.883 439.031 207.953 431.986 201.1 425.47C198.489 422.988 195.908 420.6 193.376 418.257C188.488 413.732 183.784 409.378 179.404 404.851C166.266 391.272 156.714 376.779 156.714 354.27C156.714 330.249 167.29 313.853 184.616 301.877L185.695 301.132V299.821V264.517V262.017H183.195H148.593H147.252L146.51 263.135C134.78 280.814 118.737 291.525 95.2858 291.525C73.2513 291.525 59.054 281.81 45.7272 268.408C41.286 263.941 37.0147 259.144 32.5767 254.159C30.2786 251.578 27.9358 248.947 25.5016 246.285C19.0894 239.274 12.1535 232.184 4.06328 225.702C12.1738 219.22 19.1206 212.128 25.5382 205.116C27.9986 202.427 30.3645 199.769 32.6845 197.164C37.0979 192.206 41.3452 187.436 45.7608 182.992C59.0769 169.589 73.2521 159.875 95.2858 159.875C118.737 159.875 134.78 170.586 146.51 188.265L147.252 189.383H148.593H183.195H185.695V186.883V151.579V150.268L184.616 149.522C167.29 137.547 156.714 121.151 156.714 97.13C156.714 74.6209 166.266 60.1283 179.404 46.549C183.784 42.0217 188.488 37.6676 193.377 33.1433C195.908 30.8003 198.489 28.4116 201.1 25.9297C207.953 19.4137 214.883 12.3685 221.221 4.15816C227.559 12.3685 234.489 19.4137 241.343 25.9297C243.953 28.4117 246.534 30.8003 249.066 33.1434C253.954 37.6676 258.659 42.0218 263.038 46.549C276.176 60.1283 285.729 74.6209 285.729 97.13C285.729 121.157 275.234 137.551 257.914 149.522L256.835 150.268V151.579V186.883V189.383H259.335H293.937Z" stroke="#E67721" stroke-width="5"/>
</svg>
