<svg width="224" height="452" viewBox="0 0 224 452" fill="none" xmlns="http://www.w3.org/2000/svg">
<path d="M74.9369 189.383H76.2731L77.0155 188.272C88.8353 170.585 104.882 159.875 128.332 159.875C150.321 159.875 164.496 169.589 177.813 182.992C182.243 187.45 186.504 192.238 190.932 197.213C193.237 199.803 195.587 202.444 198.03 205.115C204.442 212.127 211.378 219.218 219.47 225.7C211.379 232.182 204.447 239.274 198.041 246.286C195.6 248.959 193.251 251.601 190.947 254.192C186.526 259.165 182.27 263.952 177.845 268.409C164.541 281.811 150.366 291.525 128.332 291.525C104.791 291.525 88.7487 280.813 77.0201 263.135L76.2784 262.017H74.9369H40.3354H37.8354V264.517V299.821V301.128L38.9093 301.874C56.1509 313.85 66.7285 330.248 66.7285 354.27C66.7285 376.779 57.1759 391.272 44.0385 404.851C39.6586 409.378 34.9541 413.732 30.0659 418.257C27.5342 420.6 24.9533 422.988 22.3427 425.47C15.4889 431.986 8.55949 439.031 2.22113 447.242C-4.11725 439.031 -11.0467 431.986 -17.9004 425.47C-20.5111 422.988 -23.092 420.6 -25.6236 418.257C-30.5119 413.732 -35.2164 409.378 -39.5962 404.851C-52.7337 391.272 -62.2863 376.779 -62.2863 354.27C-62.2863 330.249 -51.7101 313.853 -34.3839 301.877L-33.3054 301.132V299.821V264.517V262.017H-35.8054H-70.4069H-71.7484L-72.4901 263.135C-84.2199 280.814 -100.263 291.525 -123.714 291.525C-145.749 291.525 -159.946 281.81 -173.273 268.408C-177.714 263.941 -181.985 259.144 -186.423 254.159C-188.721 251.578 -191.064 248.947 -193.498 246.285C-199.911 239.274 -206.847 232.184 -214.937 225.702C-206.826 219.22 -199.879 212.128 -193.462 205.116C-191.001 202.427 -188.636 199.769 -186.315 197.164C-181.902 192.206 -177.655 187.436 -173.239 182.992C-159.923 169.589 -145.748 159.875 -123.714 159.875C-100.263 159.875 -84.2199 170.586 -72.4901 188.265L-71.7484 189.383H-70.4069H-35.8054H-33.3054V186.883V151.579V150.268L-34.3839 149.522C-51.7101 137.547 -62.2863 121.151 -62.2863 97.13C-62.2863 74.6209 -52.7337 60.1283 -39.5962 46.549C-35.2163 42.0217 -30.5118 37.6676 -25.6235 33.1433C-23.0919 30.8003 -20.511 28.4116 -17.9004 25.9297C-11.0467 19.4137 -4.11726 12.3685 2.22112 4.15816C8.55948 12.3685 15.4889 19.4137 22.3427 25.9297C24.9533 28.4117 27.5342 30.8003 30.0658 33.1434C34.9541 37.6676 39.6586 42.0218 44.0385 46.549C57.1759 60.1283 66.7285 74.6209 66.7285 97.13C66.7285 121.157 56.2341 137.551 38.914 149.522L37.8354 150.268V151.579V186.883V189.383H40.3354H74.9369Z" stroke="#F4F4F4" stroke-width="5"/>
</svg>
