<svg width="51" height="52" viewBox="0 0 51 52" fill="none" xmlns="http://www.w3.org/2000/svg">
<path fill-rule="evenodd" clip-rule="evenodd" d="M39.55 17.92C36.77 17.92 34.86 19.2 33.47 21.28H29.53V17.26C31.57 15.85 32.82 13.9 32.82 11.06C32.82 5.73 28.26 4.19 25.19 0C22.12 4.19 17.56 5.73 17.56 11.06C17.56 13.9 18.82 15.85 20.86 17.26V21.28H16.92C15.54 19.2 13.63 17.92 10.85 17.92C5.62 17.92 4.12 22.57 0 25.7C4.11 28.83 5.62 33.48 10.85 33.48C13.63 33.48 15.54 32.2 16.92 30.12H20.86V34.14C18.82 35.55 17.56 37.5 17.56 40.34C17.56 45.67 22.12 47.21 25.19 51.4C28.26 47.21 32.82 45.67 32.82 40.34C32.82 37.5 31.56 35.55 29.53 34.14V30.12H33.47C34.85 32.2 36.76 33.48 39.55 33.48C44.78 33.48 46.28 28.83 50.39 25.7C46.28 22.57 44.77 17.92 39.55 17.92Z" fill="#0D1091"/>
</svg>
