<svg width="72" height="72" viewBox="0 0 72 72" fill="none" xmlns="http://www.w3.org/2000/svg">
<circle cx="36" cy="36" r="36" fill="#FFB175"/>
<path d="M27.2799 37.8686C26.573 37.1618 26.573 36.0158 27.2799 35.309L43.0035 19.5853C43.7104 18.8785 44.8564 18.8785 45.5632 19.5853C46.27 20.2921 46.27 21.4381 45.5632 22.145L29.8395 37.8686C29.1327 38.5754 27.9867 38.5754 27.2799 37.8686Z" fill="white"/>
<path d="M27.3588 35.4368C28.0656 34.73 29.2116 34.73 29.9184 35.4368L45.6421 51.1605C46.3489 51.8673 46.3489 53.0133 45.6421 53.7201C44.9353 54.427 43.7893 54.427 43.0824 53.7201L27.3588 37.9965C26.6519 37.2897 26.6519 36.1437 27.3588 35.4368Z" fill="white"/>
</svg>
