<svg width="133" height="116" viewBox="0 0 133 116" fill="none" xmlns="http://www.w3.org/2000/svg">
<g clip-path="url(#clip0_7_161)">
<path fill-rule="evenodd" clip-rule="evenodd" d="M33.15 0L0 57.85L33.15 115.7H99.45L132.6 57.85L99.45 0H33.15Z" fill="white"/>
<path fill-rule="evenodd" clip-rule="evenodd" d="M37.3301 43.6L26.5101 37.29L23.7401 42.14C23.7401 42.14 23.6901 42.19 23.6501 42.17L20.5001 40.33C20.5001 40.33 20.4501 40.28 20.4701 40.24L28.0401 26.73C28.0401 26.73 28.0901 26.68 28.1301 26.7L31.2801 28.54C31.2801 28.54 31.3301 28.6 31.3101 28.64L28.6401 33.49L39.4601 39.8C39.4601 39.8 39.5101 39.86 39.4901 39.9L37.4201 43.59C37.4201 43.59 37.3701 43.64 37.3301 43.62" fill="black"/>
<path fill-rule="evenodd" clip-rule="evenodd" d="M36.8299 28.66C33.9599 24.29 35.5899 18.98 39.4899 16.31C43.5999 13.5 48.9399 14.48 51.6199 18.56C54.3099 22.66 52.9899 27.98 48.9599 30.74C44.5199 33.77 39.2499 32.35 36.8299 28.66ZM47.8799 21.12C46.4499 18.95 43.6399 18.14 41.6099 19.53C39.2999 21.1 39.1199 23.79 40.6199 26.08C41.9699 28.14 44.5899 29.16 46.8899 27.59C49.2099 26 49.3199 23.32 47.8799 21.13" fill="black"/>
<path fill-rule="evenodd" clip-rule="evenodd" d="M60.24 24.81L54.51 8.28C54.51 8.28 54.53 8.19 54.58 8.19H59.07C59.07 8.19 59.14 8.21 59.14 8.23L62.3 17.61L65.22 8.22C65.22 8.22 65.27 8.17 65.29 8.17H68.11C68.11 8.17 68.18 8.19 68.18 8.21L71.45 17.74L75 8.21C75 8.21 75.05 8.16 75.07 8.16H79.19C79.19 8.16 79.28 8.2 79.26 8.25L73.06 24.79C73.06 24.79 73.01 24.84 72.99 24.84H69.99C69.99 24.84 69.92 24.82 69.92 24.8L66.67 15.49L63.61 24.81C63.61 24.81 63.56 24.86 63.54 24.86H60.33C60.33 24.86 60.26 24.84 60.26 24.82" fill="black"/>
<path fill-rule="evenodd" clip-rule="evenodd" d="M78.5801 26.38L86.7101 12.08C86.7101 12.08 86.7701 12.03 86.8001 12.05L96.7601 17.94C96.7601 17.94 96.8101 18 96.7901 18.04L95.0001 21.18C95.0001 21.18 94.9501 21.23 94.9101 21.21L88.5401 17.52L87.1701 19.93L91.4301 22.53C91.4301 22.53 91.4801 22.59 91.4601 22.63L89.7901 25.57C89.7901 25.57 89.7301 25.62 89.7001 25.59L85.3801 23.09L84.1301 25.29L90.8701 29.28C90.8701 29.28 90.9201 29.34 90.8901 29.38L89.0701 32.58C89.0701 32.58 89.0101 32.63 88.9701 32.6L78.6101 26.47C78.6101 26.47 78.5601 26.41 78.5901 26.37" fill="black"/>
<path fill-rule="evenodd" clip-rule="evenodd" d="M91.15 34.69L104.69 25.61C104.69 25.61 104.76 25.59 104.79 25.63L108.88 31.97C109.87 33.51 110.85 36.91 107.3 39.3C105.52 40.49 103.74 40.47 102.2 39.59C101.88 40.2 100.55 42.65 99.54 44.48C99.07 45.3 98.83 45.92 98.71 46.28C98.69 46.38 98.62 46.4 98.57 46.32L95.93 42.22C95.93 42.22 95.91 42.15 95.93 42.1L99.12 36.83L98.07 35.16L93.45 38.26C93.45 38.26 93.38 38.28 93.35 38.24L91.13 34.79C91.13 34.79 91.11 34.72 91.15 34.69ZM102.36 35.04C103.03 36.08 104 36.51 105.02 35.82C105.75 35.33 106.2 34.35 105.53 33.31L104.13 31.14L101.14 33.15L102.36 35.04Z" fill="black"/>
<path fill-rule="evenodd" clip-rule="evenodd" d="M20.8199 76.73L35.1099 68.92C35.1099 68.92 35.1799 68.91 35.2099 68.95L38.3199 74.88C40.1099 78.29 38.9699 80.47 36.8299 81.63C35.3199 82.45 34.1499 82.37 33.0399 81.85C33.2499 83.34 32.5699 85.05 31.0399 85.89C28.6699 87.18 26.0899 86.91 24.4099 83.7L20.7999 76.82C20.7999 76.82 20.7899 76.75 20.8299 76.72L20.8199 76.73ZM26.8799 81.23C27.3799 82.19 28.4599 82.45 29.2799 82.01C30.0699 81.58 30.3599 80.37 29.7699 79.25L28.6699 77.15L25.6099 78.82L26.8799 81.23ZM32.3999 77.55C32.8299 78.36 33.7099 78.79 34.5599 78.32C35.3999 77.86 35.5199 76.94 35.0699 76.09L34.0799 74.2L31.4099 75.66L32.3999 77.55Z" fill="black"/>
<path fill-rule="evenodd" clip-rule="evenodd" d="M33.31 95.48L42.77 82.06C42.77 82.06 42.83 82.02 42.87 82.04L48.91 86.47C50.37 87.54 52.48 90.37 50 93.89C48.76 95.65 47.09 96.28 45.34 96.02C45.25 96.71 44.87 99.48 44.57 101.55C44.42 102.49 44.41 103.15 44.42 103.53C44.44 103.63 44.38 103.67 44.3 103.62L40.4 100.76C40.4 100.76 40.36 100.7 40.36 100.65L41.49 94.57L39.93 93.39L36.71 97.96C36.71 97.96 36.65 98 36.61 97.98L33.33 95.57C33.33 95.57 33.29 95.51 33.31 95.47V95.48ZM43.9 91.72C44.89 92.45 45.94 92.49 46.66 91.48C47.17 90.75 47.25 89.68 46.25 88.95L44.19 87.44L42.1 90.41L43.9 91.73V91.72Z" fill="black"/>
<path fill-rule="evenodd" clip-rule="evenodd" d="M52.4699 106.38L56.5599 90.39C56.5599 90.39 56.5999 90.33 56.6399 90.34L60.6599 91.41C60.6599 91.41 60.7199 91.45 60.7099 91.5L56.6199 107.49C56.6199 107.49 56.5799 107.55 56.5399 107.54L52.5199 106.47C52.5199 106.47 52.4599 106.43 52.4699 106.38Z" fill="black"/>
<path fill-rule="evenodd" clip-rule="evenodd" d="M66.47 109L64.49 92.6C64.49 92.6 64.5 92.53 64.55 92.52L71.02 91.71C72.19 91.56 73.57 91.6 74.78 91.97C77.3 92.75 79.44 94.9 79.96 99.18C80.64 104.82 76.78 107.78 73.43 108.19L66.55 109.05C66.55 109.05 66.48 109.04 66.47 108.99V109ZM72.75 104.46C74.24 104.27 76.1 102.85 75.7 99.53C75.45 97.49 74.59 96.32 73.32 95.81C72.64 95.54 71.83 95.45 70.98 95.56L69.21 95.78L70.29 104.77L72.74 104.46H72.75Z" fill="black"/>
<path fill-rule="evenodd" clip-rule="evenodd" d="M107.92 86.83L93.5799 79.13C93.5799 79.13 93.5299 79.08 93.5499 79.03L98.9199 68.64C98.9199 68.64 98.9699 68.59 99.0099 68.61L102.16 70.3C102.16 70.3 102.21 70.35 102.19 70.4L98.8399 77.05L101.25 78.35L103.63 73.9C103.63 73.9 103.68 73.85 103.72 73.87L106.67 75.45C106.67 75.45 106.72 75.5 106.7 75.55L104.42 80.06L106.63 81.25L110.26 74.22C110.26 74.22 110.31 74.17 110.35 74.19L113.56 75.92C113.56 75.92 113.61 75.97 113.59 76.02L108.01 86.83C108.01 86.83 107.96 86.88 107.92 86.86" fill="black"/>
<path fill-rule="evenodd" clip-rule="evenodd" d="M97.39 88.67C97.39 88.67 97.33 88.63 97.29 88.65L94.13 90.95C94.13 90.95 94.09 91.01 94.11 91.05L94.76 91.98C95.26 92.7 96.03 94.21 94.82 95.51C94.59 95.75 94.33 95.99 94 96.23C91.78 97.85 89.68 97.11 87.93 94.62C86.13 92.04 86.54 89.75 88.43 88.38C89.91 87.3 91.2 87.65 92.26 88.57C92.28 88.59 92.33 88.63 92.36 88.57C92.39 88.52 94.23 85.48 94.5 85.03C94.52 85 94.5 84.95 94.5 84.94C92.29 83.11 89.46 82.87 86.28 85.19C82.44 87.98 81.35 93.18 84.4 97.54C86.89 101.11 91.41 102.42 95.29 99.85C97.51 98.38 97.88 96.17 97.88 96.17L99.42 96.53C99.42 96.53 99.47 96.55 99.51 96.51C99.55 96.48 101.69 94.93 101.69 94.93C101.73 94.9 101.73 94.87 101.71 94.83L97.4 88.66L97.39 88.67Z" fill="black"/>
<path fill-rule="evenodd" clip-rule="evenodd" d="M26.1599 59.26C26.1599 58 27.0199 57.1 28.0099 56.75C27.2999 56.3 26.8599 55.74 26.8599 54.57C26.8599 53.07 28.3499 51.79 30.9099 51.79C33.1299 51.79 34.7299 52.96 34.7299 54.57C34.7299 55.74 34.3499 56.39 33.5699 56.81C34.5599 57.07 35.3799 57.89 35.3799 59.31C35.3799 61 33.8899 62.31 30.7699 62.31C27.6499 62.31 26.1599 61.14 26.1599 59.27M32.7599 59.1C32.7599 58.34 31.9999 57.83 30.8399 57.83C29.5799 57.83 28.7599 58.29 28.7599 59.1C28.7599 59.72 29.3199 60.3 30.8099 60.3C32.2999 60.3 32.7599 59.65 32.7599 59.1ZM32.2499 54.9C32.2499 54.14 31.6299 53.79 30.8099 53.79C29.8799 53.79 29.3699 54.24 29.3699 54.89C29.3699 55.61 29.9799 56 30.8099 56C31.6399 56 32.2499 55.54 32.2499 54.9Z" fill="black"/>
<path fill-rule="evenodd" clip-rule="evenodd" d="M114.11 62.16V59.9H109.19C109.19 59.9 109.15 59.89 109.15 59.86V57.61C109.15 57.61 109.16 57.58 109.16 57.57L113.6 52.03L113.63 52.01H116.41C116.41 52.01 116.45 52.03 116.45 52.05V57.87H118.04C118.04 57.87 118.08 57.88 118.08 57.91V59.85C118.08 59.85 118.07 59.89 118.04 59.89H116.45V62.15C116.45 62.15 116.44 62.19 116.41 62.19H114.15C114.15 62.19 114.11 62.18 114.11 62.15V62.16ZM114.11 57.87V54.39L111.32 57.87H114.11Z" fill="black"/>
<path fill-rule="evenodd" clip-rule="evenodd" d="M102.5 51.8C99.6599 51.8 98.3599 53.5 98.3599 55.31C98.3599 57.4 99.9799 58.57 102.02 58.57C102.9 58.57 103.77 58.2 104.28 57.65C104.06 59.34 103.22 60.15 102.02 60.2C101.85 60.2 100.65 60.29 99.7799 59.47C99.6699 59.59 99.1599 60.23 98.5099 61.08C99.8599 62.5 101.96 62.36 101.96 62.36C104.71 62.36 106.66 60.28 106.66 56.62C106.66 53.2 104.76 51.8 102.5 51.8ZM102.41 56.63C101.63 56.63 100.7 56.29 100.7 55.3C100.7 54.39 101.39 53.86 102.4 53.86C103.59 53.86 104.05 54.39 104.05 55.23C104.05 56.07 103.26 56.63 102.41 56.63Z" fill="black"/>
<path fill-rule="evenodd" clip-rule="evenodd" d="M81.4599 50.01C78.6799 50.01 76.7699 51.29 75.3799 53.37H71.4399V49.35C73.4799 47.94 74.7299 45.99 74.7299 43.15C74.7299 37.82 70.1699 36.28 67.0999 32.09C64.0299 36.28 59.4699 37.82 59.4699 43.15C59.4699 45.99 60.7299 47.94 62.7699 49.35V53.37H58.8299C57.4499 51.29 55.5399 50.01 52.7599 50.01C47.5299 50.01 46.0299 54.66 41.9099 57.79C46.0199 60.92 47.5299 65.57 52.7599 65.57C55.5399 65.57 57.4499 64.29 58.8299 62.21H62.7699V66.23C60.7299 67.64 59.4699 69.59 59.4699 72.43C59.4699 77.76 64.0299 79.3 67.0999 83.49C70.1699 79.3 74.7299 77.76 74.7299 72.43C74.7299 69.59 73.4699 67.64 71.4399 66.23V62.21H75.3799C76.7599 64.29 78.6699 65.57 81.4599 65.57C86.6899 65.57 88.1899 60.92 92.2999 57.79C88.1899 54.66 86.6799 50.01 81.4599 50.01Z" fill="black"/>
<path fill-rule="evenodd" clip-rule="evenodd" d="M17.26 62.21C17.26 62.21 17.22 62.2 17.22 62.17V60.23C17.22 60.23 17.23 60.19 17.26 60.19H19.34V54.64C19.02 54.94 18.07 55.17 17.26 55.19C17.23 55.19 17.22 55.18 17.22 55.15V52.97C17.22 52.97 17.23 52.93 17.26 52.93C18.16 52.87 18.94 52.45 19.38 52.06C19.39 52.05 19.45 52.02 19.46 52.02H21.91C21.91 52.02 21.95 52.03 21.95 52.06V60.19H24.05C24.05 60.19 24.09 60.2 24.09 60.23V62.17C24.09 62.17 24.08 62.21 24.05 62.21H17.25H17.26Z" fill="black"/>
</g>
<defs>
<clipPath id="clip0_7_161">
<rect width="132.6" height="115.7" fill="white"/>
</clipPath>
</defs>
</svg>
