<svg width="51" height="85" viewBox="0 0 51 85" fill="none" xmlns="http://www.w3.org/2000/svg">
<g clip-path="url(#clip0_17_12790)">
<path d="M25.5 0C11.439 0 0 11.3362 0 25.3069C0 28.6424 0.901073 32.5016 2.00711 35.3535L2.03585 35.4122L2.0646 35.4997C9.88681 51.9948 17.664 68.5099 25.4987 85C33.3222 68.5061 41.1232 52.001 48.9329 35.4997C50.1927 31.9667 50.9325 28.4662 50.9987 25.3069C51.075 11.1438 39.586 0.0399912 25.5 0ZM25.5 3.74917C37.5226 3.74917 47.222 13.3596 47.222 25.3069C47.222 27.8913 46.4221 31.5056 45.5098 33.8888L25.4987 76.1832L5.48767 33.8888C4.5791 31.503 3.77551 27.8863 3.77551 25.3069C3.77551 13.3596 13.4761 3.74917 25.4975 3.74917H25.5ZM25.5 14.9967C19.7649 14.9967 15.0221 19.5419 15.0221 25.1607C15.0221 30.7795 19.7649 35.2947 25.5 35.2947C31.2351 35.2947 35.9779 30.7795 35.9779 25.1607C35.9779 19.5419 31.2351 14.9967 25.5 14.9967ZM25.5 18.7459C29.2493 18.7459 32.1999 21.6252 32.1999 25.1607C32.1999 28.6962 29.2493 31.5455 25.5 31.5455C21.7507 31.5455 18.8001 28.6962 18.8001 25.1607C18.8001 21.6252 21.7507 18.7459 25.5 18.7459Z" fill="#0D1091"/>
</g>
<defs>
<clipPath id="clip0_17_12790">
<rect width="51" height="85" fill="white"/>
</clipPath>
</defs>
</svg>
