<svg width="72" height="72" viewBox="0 0 72 72" fill="none" xmlns="http://www.w3.org/2000/svg">
<circle cx="36" cy="36" r="36" fill="#E67721"/>
<path d="M45.8922 36.3819C46.5991 37.0887 46.5991 38.2347 45.8922 38.9415L30.1686 54.6652C29.4618 55.372 28.3158 55.372 27.6089 54.6652C26.9021 53.9584 26.9021 52.8124 27.6089 52.1055L43.3326 36.3819C44.0394 35.675 45.1854 35.675 45.8922 36.3819Z" fill="white"/>
<path d="M45.8133 38.8137C45.1065 39.5205 43.9605 39.5205 43.2537 38.8137L27.53 23.09C26.8232 22.3832 26.8232 21.2372 27.53 20.5304C28.2369 19.8235 29.3829 19.8235 30.0897 20.5304L45.8133 36.254C46.5202 36.9608 46.5202 38.1068 45.8133 38.8137Z" fill="white"/>
</svg>
