<svg width="75" height="79" viewBox="0 0 75 79" fill="none" xmlns="http://www.w3.org/2000/svg">
<path d="M71.7187 13.4088H73.8282C74.5314 13.4088 75 12.9158 75 12.176C75 11.4362 74.5314 10.9432 73.8282 10.9432H71.1329L63.8671 0.462304C63.3986 -0.154101 62.4608 -0.154101 61.9922 0.462304L54.7265 10.9425H52.0311C51.3279 10.9425 50.8594 11.4355 50.8594 12.1753C50.8594 12.9152 51.3279 13.4082 52.0311 13.4082H54.1406V19.3261H20.9767V13.4075H23.0862C23.7894 13.4075 24.2579 12.9145 24.2579 12.1747C24.2579 11.4348 23.7894 10.9419 23.0862 10.9419H20.3908L13.1251 0.462304C12.6565 -0.154101 11.7187 -0.154101 11.2502 0.462304L3.86714 10.9425H1.17174C0.468569 10.9425 0 11.4355 0 12.1753C0 12.9152 0.468569 13.4082 1.17174 13.4082H3.28127V63.0955H1.17174C0.468569 63.0955 0 63.5885 0 64.3283V77.7672C0 78.507 0.469213 79 1.17239 79H23.0862C23.7894 79 24.2579 78.507 24.2579 77.7672V64.3283C24.2579 63.5885 23.7887 63.0955 23.0855 63.0955H22.617L35.6248 49.4099C36.0933 48.9169 36.0933 48.177 35.6248 47.6841C35.1562 47.1911 34.453 47.1911 33.9844 47.6841L20.9767 61.3697V30.4234L33.164 36.3413C33.2813 36.4647 33.5152 36.4647 33.6325 36.4647H41.3668C41.4841 36.4647 41.7181 36.4647 41.8354 36.3413L54.0227 30.4234V61.3697L41.0149 47.6841C40.5463 47.1911 39.8432 47.1911 39.3746 47.6841C38.906 48.177 38.906 48.9169 39.3746 49.4099L52.3824 63.0955H51.9138C51.2106 63.0955 50.7421 63.5885 50.7421 64.3283V77.7672C50.7421 78.507 51.2106 79 51.9138 79H73.8276C74.5308 79 74.9994 78.5063 74.9994 77.7665V64.3277C74.9994 63.5878 74.5301 63.0949 73.827 63.0949H71.7174C71.7174 44.6014 71.7174 30.2993 71.7174 13.4082H71.7181L71.7187 13.4088ZM61.1717 63.0962V58.0409C61.1717 57.0542 61.8749 56.3151 62.8121 56.3151C63.7492 56.3151 64.4524 57.0549 64.4524 58.0409V63.0962H61.1711H61.1717ZM62.9294 53.8495C60.7025 53.8495 58.9449 55.6987 58.9449 58.0416V63.0969H56.4841V49.2878H69.4919V63.0969H67.0311V58.0416C66.9138 55.8221 65.0389 53.8495 62.93 53.8495H62.9294ZM56.3668 13.4095H69.3746V27.2186H66.9138V22.1633C66.9138 19.8204 65.1562 17.9712 62.9294 17.9712C60.7025 17.9712 58.9449 19.8204 58.9449 22.1633V27.2186H56.4835C56.3662 22.4101 56.3662 18.3414 56.3662 13.4095H56.3668ZM64.5697 46.8222H61.2884V41.7668C61.2884 40.7802 61.9916 40.041 62.9287 40.041C63.8658 40.041 64.569 40.7809 64.569 41.7668V46.8222H64.5697ZM62.9294 37.5754C60.7025 37.5754 58.9449 39.4246 58.9449 41.7675V46.8229H56.4841V29.6849H69.4919V46.8229H67.0311V41.7675C66.9138 39.5481 65.0389 37.5754 62.93 37.5754H62.9294ZM64.5697 27.2186H61.2884V22.1633C61.2884 21.1766 61.9916 20.4375 62.9287 20.4375C63.8658 20.4375 64.569 21.1773 64.569 22.1633V27.2186H64.5697ZM62.9294 3.42295L68.3202 11.0673H57.6565L62.9294 3.42295ZM54.0233 21.9171V27.2186H20.9767V21.7937H54.0233V21.9171ZM13.8283 63.0969H10.4297V58.0416C10.4297 57.0549 11.1329 56.3158 12.07 56.3158C13.0071 56.3158 13.7103 57.0556 13.7103 58.0416V63.0969H13.8276H13.8283ZM16.1717 63.0969V58.0416C16.1717 55.6987 14.4141 53.8495 12.1873 53.8495C9.96047 53.8495 8.08555 55.8221 8.08555 58.0416V63.0969H5.62476V49.2878H18.6325V63.0969H16.1717ZM10.4297 46.8222V41.7668C10.4297 40.7802 11.1329 40.041 12.07 40.041C13.0071 40.041 13.7103 40.7809 13.7103 41.7668V46.8222H10.429H10.4297ZM12.07 37.5754C9.84317 37.5754 8.08555 39.4246 8.08555 41.7675V46.8229H5.62476V29.6849H18.6325V46.8229H16.1717V41.7675C16.1717 39.5481 14.2968 37.5754 12.0706 37.5754H12.07ZM13.8276 27.2186H10.429V22.1633C10.429 21.1766 11.1322 20.4375 12.0693 20.4375C13.0065 20.4375 13.7097 21.1773 13.7097 22.1633V27.2186H13.827H13.8276ZM18.6325 20.6836V27.2186H16.1717V22.1633C16.1717 19.8204 14.4141 17.9712 12.1873 17.9712C9.96047 17.9712 8.20285 19.8204 8.20285 22.1633V27.2186H5.62476V13.4095H18.6325V20.6836ZM12.0706 3.42295L17.4614 11.0673H6.79715L12.07 3.42295H12.0706ZM21.9144 76.5371H2.34413V65.5639H21.9144V76.5371ZM41.1329 34.0011H33.9844L25.0784 29.6856H49.9216L41.1329 34.0011ZM72.6559 76.5371H53.0855V65.5639H72.6559V76.5371Z" fill="#7B6F01"/>
</svg>
