<svg width="85" height="85" viewBox="0 0 85 85" fill="none" xmlns="http://www.w3.org/2000/svg">
<g clip-path="url(#clip0_17_12796)">
<path d="M42.5 0C65.9364 0 85 19.0661 85 42.5C85 65.9339 65.9364 85 42.5 85C19.0636 85 0 65.9339 0 42.5C0 19.0661 19.0661 0 42.5 0ZM42.5 82.0918C64.3304 82.0918 82.0893 64.333 82.0893 42.5026C82.0893 20.6721 64.3304 2.90902 42.5 2.90902C20.6696 2.90902 2.90817 20.6704 2.90817 42.5009C2.90817 64.3313 20.6696 82.0927 42.5 82.0927V82.0918Z" fill="#0D1091"/>
<path d="M42.5001 8.28796C43.3043 8.28796 43.9546 8.93819 43.9546 9.74247C43.9546 10.5468 43.3043 11.197 42.5001 11.197C25.24 11.197 11.197 25.24 11.197 42.5001C11.197 59.7601 25.24 73.8014 42.5001 73.8014C59.7602 73.8014 73.8031 59.7601 73.8031 42.5001C73.8031 41.6958 74.4534 41.0455 75.2576 41.0455C76.0619 41.0455 76.7122 41.6958 76.7122 42.5001C76.7122 61.3644 61.3645 76.7122 42.5001 76.7122C23.6357 76.7122 8.28797 61.3644 8.28797 42.5001C8.28797 23.6357 23.6365 8.28711 42.4992 8.28711L42.5001 8.28796Z" fill="#0D1091"/>
<path d="M47.1258 40.5349C47.3853 41.1435 47.5283 41.8133 47.5283 42.5154C47.5283 45.3164 45.2585 47.5879 42.4558 47.5879C39.6532 47.5879 37.3833 45.3155 37.3833 42.5154C37.3833 41.7894 37.5433 41.1009 37.8182 40.4745L24.5217 27.1779C23.9531 26.6094 23.9531 25.6902 24.5217 25.1217C25.0902 24.5532 26.0094 24.5532 26.5779 25.1217L39.7136 38.2574C40.5051 37.7468 41.443 37.4412 42.4567 37.4412C43.4703 37.4412 44.4635 37.7561 45.267 38.2949L50.9761 33.5637C51.5982 33.0471 52.514 33.1347 53.0247 33.7552C53.5396 34.3739 53.4519 35.2914 52.8349 35.802L47.1249 40.5349H47.1258Z" fill="#0D1091"/>
</g>
<defs>
<clipPath id="clip0_17_12796">
<rect width="85" height="85" fill="white" transform="matrix(-1 0 0 1 85 0)"/>
</clipPath>
</defs>
</svg>
